PathFileType	4	(X/Y/Z)	C:\Users\WrightLab\Desktop\Jo\P1.2Trial27.trc
DataRate	CameraRate	NumFrames	NumMarkers	Units	OrigDataRate	OrigDataStartFrame	OrigNumFrames
100.00	100.00	       21	19	mm	100.00	355	       946
Frame#	Time	Headset_Front			Headset_Back			Headset_Left			Headset_Right			Left_Shoulder			Right_Shoulder			Sternum			C7			Left Elbow			Right Elbow			Left Wrist			Right Wrist			Left ASIS			Right ASIS			S2			Left Knee			Right Knee			Left Ankle			Right Ankle			
		X1	Y1	Z1	X2	Y2	Z2	X3	Y3	Z3	X4	Y4	Z4	X5	Y5	Z5	X6	Y6	Z6	X7	Y7	Z7	X8	Y8	Z8	X9	Y9	Z9	X10	Y10	Z10	X11	Y11	Z11	X12	Y12	Z12	X13	Y13	Z13	X14	Y14	Z14	X15	Y15	Z15	X16	Y16	Z16	X17	Y17	Z17	X18	Y18	Z18	X19	Y19	Z19	

355	3.540	-894.57208	1263.80713	713.44037	-933.75574	1506.46729	898.62714	-1028.33289	1387.96838	817.85065				-1136.63525	1236.00183	985.99841				-937.14374	1153.53137	850.78839	-916.18250	1322.31848	1057.68774	-1196.81946	957.91895	1060.75378	-632.73645	1003.41345	1035.71582	-1178.01770	815.32709	873.85046	-563.85016	747.29272	1010.87878	-1068.96204	848.47552	917.18713	-794.15173	834.91229	884.13440	-907.56506	927.38226	1169.74133	-1129.16077	433.06891	990.78210	-825.36823	456.42743	856.53638				-851.05750	113.66109	855.46759	
356	3.550	-891.20557	1265.24146	706.47626	-931.05890	1507.75122	891.89941	-1025.47070	1389.73279	810.13470				-1134.95276	1236.49207	978.33569				-934.83368	1154.69934	843.53906	-914.71368	1323.23950	1050.91443	-1194.75342	957.62201	1050.80505	-630.20642	1005.21716	1028.81262	-1174.88269	816.95648	863.35736	-561.44415	748.32849	998.85126	-1066.83447	850.18311	908.87311	-790.97894	835.82355	877.22681	-906.31952	927.40479	1162.74939	-1128.84326	434.31061	970.35773	-823.26935	454.32230	852.77881				-851.51031	113.48487	853.66644	
357	3.560	-887.63477	1266.98950	699.08551	-929.30511	1509.04236	885.60229	-1022.67932	1391.13269	802.66418				-1133.39758	1237.23596	970.85052				-932.95471	1156.07166	837.02350	-913.29352	1323.69336	1044.40479	-1193.13489	957.64954	1040.87061	-627.23932	1005.93207	1020.80444	-1172.31702	818.25500	852.07526	-558.90985	749.28131	986.04651	-1064.25891	850.33197	899.83496	-787.63379	836.81976	869.71637	-904.82898	927.45135	1155.11609	-1130.06018	435.88657	955.37280	-821.13849	455.41568	847.06305				-851.83191	112.22704	852.19476	
358	3.570	-884.26495	1267.84460	694.16479	-926.95917	1510.41638	879.27124	-1020.11456	1392.77673	795.40790				-1131.85059	1237.62231	963.68219				-930.88312	1157.28381	829.56647	-911.99023	1324.53809	1038.08936	-1192.40320	958.44910	1031.13953	-624.50818	1007.42468	1011.41919	-1169.38696	819.76465	841.57611	-556.57910	750.60034	974.35590	-1061.75183	851.75195	891.92139	-784.90167	837.82129	862.11591	-903.86969	927.83643	1147.94067	-1128.56018	438.71313	933.75031	-818.80194	453.67618	843.96808				-851.64307	111.36935	850.32080	
359	3.580	-881.02197	1269.35352	687.92401	-924.79803	1511.37988	873.11249	-1017.43518	1394.25073	788.33856				-1130.41187	1238.14807	956.63605				-929.06812	1158.47498	823.27417	-910.55951	1324.92114	1031.90918	-1191.10608	958.20721	1021.36713	-622.25403	1008.35187	1004.15765	-1166.21948	821.12939	830.94879	-554.67987	752.26849	960.70404	-1059.82092	852.06079	883.19965	-781.59851	839.05798	855.10950	-902.79364	927.97089	1141.43066	-1127.82703	441.00586	916.14929	-817.36932	452.64441	840.38354				-851.43848	111.48241	847.96796	
360	3.590	-877.91034	1270.67688	681.91357	-923.12256	1512.91272	867.24152	-1014.96362	1395.62195	781.64471				-1128.81689	1238.50623	949.77118				-927.08710	1160.13586	816.12817	-909.83441	1326.00854	1025.93213	-1189.60095	958.04773	1011.71869	-620.07428	1008.26971	997.08636	-1163.20728	822.59253	820.28540	-552.47150	753.13470	948.85925	-1057.59180	853.11035	875.31451	-779.33154	839.87561	847.72925	-901.79498	928.50208	1134.66089	-1126.93896	444.17773	897.21313	-813.33087	451.10999	837.37689				-850.49902	108.77091	847.60425	
361	3.600	-874.56500	1272.32056	676.08160	-920.99445	1514.01770	861.46027	-1012.39447	1397.01489	775.02533				-1127.21680	1239.05347	942.82690				-925.44885	1161.40234	809.65924	-908.78601	1326.57153	1020.05103	-1188.26086	958.31909	1002.36914	-616.98096	1010.21344	989.74200	-1160.04016	824.17914	809.60498	-550.82983	754.44928	935.51617	-1055.81262	854.33252	866.25031	-775.85431	840.84052	841.39862	-899.96338	928.11328	1127.35986	-1125.42053	448.18124	876.99677	-810.02625	449.46347	835.30695				-849.94366	108.42236	847.04437	
362	3.610	-871.80688	1273.60449	669.93048	-919.02600	1515.32495	855.72003	-1009.96338	1398.27051	768.71582				-1125.50952	1239.40564	935.93866				-922.77454	1162.08154	803.59161	-908.16541	1327.47632	1014.30664	-1186.39880	957.70331	993.04736	-614.23413	1010.76929	981.37775	-1157.25391	825.56067	799.28925	-548.63116	756.01453	923.07251	-1053.21667	854.56171	860.28619	-774.60443	842.15533	834.31940	-898.70898	928.27240	1120.18994	-1124.32556	451.42368	861.90424	-806.23657	447.56393	834.32001				-849.08350	108.51619	845.02631	
363	3.620	-868.91400	1274.84277	664.85223	-917.17792	1516.55054	850.27850	-1007.51807	1399.77124	762.48315				-1123.94592	1240.03308	928.92218				-920.90546	1163.49500	797.09351	-907.46741	1328.35596	1008.53088	-1185.00891	958.08600	983.86682	-612.24567	1011.43945	974.64935	-1154.49451	827.26892	789.08789	-547.19965	757.16290	910.03668	-1050.86890	855.87323	850.85004	-771.82825	843.70654	827.13452	-897.72937	928.60461	1113.40906	-1122.97241	455.26407	845.79016	-802.75732	446.69623	832.00861				-848.61108	107.18251	846.50323	
364	3.630	-865.96143	1276.72327	658.60797	-915.14099	1517.63940	844.87256	-1005.16132	1400.90076	756.39685				-1122.29260	1240.46582	921.83020				-918.57874	1164.94531	790.39996	-906.20892	1328.66431	1002.78571	-1183.12439	957.85278	974.70099	-611.24084	1011.94086	968.18976	-1151.45215	828.78827	778.73419	-546.30652	758.24518	896.88800	-1047.94812	856.08405	843.58252	-769.33185	844.81873	821.07428	-897.74445	929.40497	1106.75708	-1121.36902	457.98187	831.39587	-799.23303	445.01489	830.34448				-847.92108	107.25083	845.88550	
365	3.640	-863.21436	1278.25671	653.62469	-913.18750	1518.79712	839.58057	-1002.97363	1402.32849	750.42889				-1120.66064	1241.16052	914.48138				-916.06305	1166.12817	784.59442	-905.29785	1329.50244	997.08289	-1181.86340	958.13165	965.70300	-608.44635	1012.52112	960.97729	-1148.28015	830.35205	768.70355	-544.69397	759.69330	885.06262	-1044.96802	857.73108	835.40582	-767.05475	846.31909	815.35077	-897.62128	929.72772	1100.33813	-1118.23621	464.03787	809.40546	-794.49359	443.15744	829.60724	-1125.54578	236.85870	1124.29236	-847.50586	107.01232	846.93646	
366	3.650	-860.35120	1279.83203	648.05420	-911.53357	1519.73376	834.52472	-1000.66394	1403.45654	744.54132	-774.80408	1367.22375	734.65717	-1119.02197	1241.61108	907.09021				-913.28064	1167.59558	776.80157	-903.88666	1329.63647	991.24005	-1181.14978	959.32977	956.81934	-606.41321	1013.74866	954.30811	-1145.47229	831.99188	759.03241	-544.07892	761.43311	872.64716	-1042.43335	857.82788	827.32617	-764.58710	847.84265	808.71558	-897.39563	929.74811	1093.29724	-1115.70203	467.65588	795.32336	-791.87018	442.38675	828.42151	-1127.49121	234.62093	1103.82263	-846.88208	107.19483	846.39661	
367	3.660	-857.73975	1281.42224	642.13092	-909.56281	1520.78870	829.37830	-998.49353	1404.74194	738.66858	-772.31567	1369.01404	727.63293	-1117.42578	1242.38391	899.35748				-910.57373	1168.25842	771.72742	-902.58521	1329.80859	985.50702	-1179.47937	959.26782	947.77405	-604.72058	1014.73401	948.55896	-1142.17029	833.32068	749.10272	-543.57147	762.59717	860.11102	-1039.49084	859.89355	818.19989	-761.79083	849.66235	801.94403	-897.45966	929.80414	1086.27832	-1111.97925	471.87735	779.20300	-788.00549	441.09775	827.48492	-1129.13953	231.03818	1081.72498	-846.36719	107.51755	845.97827	
368	3.670	-854.81158	1282.89294	637.32275	-907.70782	1521.60107	824.36407	-996.15521	1405.79480	732.87848	-770.27991	1370.56287	723.17902	-1115.68054	1242.84326	891.65741				-907.63116	1169.48279	765.42975	-901.49835	1330.37537	979.81335	-1178.17883	959.92938	938.70111	-603.25348	1014.76758	941.89215	-1139.10864	834.53998	739.65887	-543.70416	764.66455	848.01849	-1036.57092	860.04889	809.54425	-758.57483	851.35449	796.43170	-898.51282	930.20947	1079.91467	-1108.19141	475.59265	765.34308	-784.25061	440.73840	826.36127	-1130.43872	226.62122	1058.99170	-845.70386	105.98908	847.90234	
369	3.680	-851.86578	1285.16516	629.54126	-906.14581	1522.46167	819.38318	-993.73535	1406.90027	726.94690	-767.47394	1371.29114	718.92615	-1114.09302	1243.59705	883.65710				-904.73230	1170.81592	758.82208	-900.37195	1330.47510	974.04187	-1177.01538	960.86407	929.62103	-601.86884	1015.39600	936.03583	-1135.84778	835.67426	730.33746	-543.47272	766.25885	836.07251	-1033.25183	861.68842	801.12927	-755.70062	850.94293	793.22076	-898.11884	929.31281	1073.22913	-1103.10913	481.02063	745.39319	-780.66620	438.65369	825.48108	-1131.20557	221.75037	1035.87878	-845.52893	106.50955	848.64056	
370	3.690	-729.44226	1215.14722	746.60022	-904.20471	1523.33203	814.24860	-991.42346	1407.88000	721.21686	-765.17590	1372.78528	713.64325	-1112.36658	1244.03979	875.72443				-902.05737	1171.86548	753.07874	-899.32782	1330.56714	968.21478	-1175.17932	960.71588	920.33478	-600.90515	1015.70563	931.23175	-1132.75330	836.54419	721.13318	-543.30139	767.55780	825.00513	-1030.17090	862.37976	791.18005	-752.32678	851.87640	788.36993	-899.82208	929.98743	1067.54602	-1098.64246	483.79263	733.14227	-777.42474	438.06287	823.89294				-845.26141	106.64576	848.41797	
371	3.700	-727.34766	1216.13477	739.51703	-902.40308	1523.95313	809.24164	-988.98645	1408.92151	715.20715	-762.95837	1374.34082	708.13318	-1110.75928	1244.71606	867.57715				-898.90082	1172.13794	746.66266	-899.26086	1331.48096	962.64392	-1173.29919	961.02484	910.90155	-599.31720	1016.15015	925.26245	-1129.66162	837.61908	712.39783	-544.06714	769.04932	813.93994	-1026.72485	862.86359	784.41565	-748.81543	853.06104	784.96490	-900.01996	929.52094	1060.76257	-1093.55762	487.72440	719.30341	-773.52716	436.65802	822.27802	-1130.96326	210.78812	989.13495	-845.34528	106.54557	848.47870	
372	3.710	-725.22778	1217.31055	734.56165	-900.72888	1524.74060	804.15997	-986.77087	1409.79187	709.34174	-760.60168	1375.12830	704.30273	-1109.01953	1245.00757	859.43219				-895.88989	1173.10474	740.91602	-898.42249	1331.38672	956.76691	-1171.64954	961.19324	901.49774	-597.99365	1016.62183	918.52808	-1126.10754	838.10260	702.87299	-545.20947	769.95599	802.78082	-1023.40961	863.58191	776.07477	-745.62537	853.76886	779.98138	-901.47510	930.26257	1053.66919	-1088.04236	490.99957	705.65356	-769.13580	435.51413	820.96063	-1130.28430	204.77448	965.12592	-845.84601	106.17339	848.87677	
373	3.720	-723.02173	1218.40564	727.48126	-898.43030	1525.16321	798.78674	-984.37170	1410.74536	703.29181	-757.80377	1376.04126	698.55200	-1107.28564	1245.54004	851.12177				-892.80988	1173.29492	734.61810	-897.77264	1331.58789	950.85669	-1169.79297	960.96368	891.98822	-596.86572	1016.48322	914.06171	-1122.91382	838.73407	694.12018	-546.55035	771.32477	792.86707	-1020.40625	864.88892	766.72485	-742.20081	854.87982	775.00720	-902.19098	930.14044	1046.84399	-1081.34204	494.35791	691.57465	-766.28864	434.25360	819.24658	-1129.22400	198.54535	940.48175	-846.54193	105.72232	849.44055	
374	3.730	-837.78870	1291.36841	600.84015	-896.67310	1525.63159	793.63391	-982.02826	1411.50891	697.22705	-755.59558	1377.33435	692.38666	-1105.52637	1245.65845	842.85028				-890.18256	1174.05261	728.22406	-896.87134	1331.87378	944.90228	-1168.98633	961.91907	882.80493	-595.21533	1015.98108	908.54730	-1119.77649	839.53021	685.41455	-547.46661	772.21161	783.09131	-1016.47339	864.78247	758.09821	-738.65594	855.74475	770.60059	-903.93207	930.46387	1041.05054	-1075.29333	497.73822	678.24030	-763.14508	432.90219	818.29895	-1128.08777	191.79352	914.50812				
375	3.740	-835.07813	1292.94116	594.84045	-894.50494	1526.01599	788.08771	-979.45319	1412.20398	691.04108	-752.67499	1377.52185	688.50397	-1103.76270	1246.05066	834.38837	-677.45679	1260.20459	843.03290	-886.91071	1174.61182	722.27142	-895.65308	1331.68701	938.68439	-1167.86938	961.92664	873.40698	-595.73346	1015.60754	902.59027	-1116.21448	839.68835	676.08044	-549.44189	773.27948	773.36163	-1013.07849	864.86774	749.09045	-735.40210	856.03717	767.00476	-905.40533	931.06042	1033.92004	-1068.63574	500.21313	665.55042	-760.28662	431.99008	816.14410	-1126.19556	184.96216	889.13550				
